<?xml version="1.0" standalone="no"?>
<!DOCTYPE svg PUBLIC "-//W3C//DTD SVG 20010904//EN"
 "http://www.w3.org/TR/2001/REC-SVG-20010904/DTD/svg10.dtd">
<svg version="1.0" xmlns="http://www.w3.org/2000/svg"
 width="902.000000pt" height="902.000000pt" viewBox="0 0 902.000000 902.000000"
 preserveAspectRatio="xMidYMid meet">
<metadata>
Created by potrace 1.14, written by Peter Selinger 2001-2017
</metadata>
<g transform="translate(0.000000,902.000000) scale(0.100000,-0.100000)"
fill="#000000" stroke="none">
<path d="M4698 9004 c-4 -3 -12 -7 -20 -8 -7 -1 -30 -10 -51 -19 -20 -9 -38
-15 -40 -15 -1 1 -11 -5 -22 -15 -11 -9 -39 -30 -62 -46 -47 -34 -123 -125
-123 -147 0 -8 -4 -14 -9 -14 -12 0 -42 -113 -45 -172 -2 -28 1 -69 6 -92 5
-22 9 -47 10 -53 1 -7 5 -13 10 -13 5 0 7 -4 4 -9 -3 -5 8 -38 26 -73 18 -34
33 -67 34 -73 2 -5 9 -32 17 -60 26 -96 6 -194 -52 -255 -21 -22 -36 -42 -34
-44 2 -2 -7 -3 -19 -2 -21 1 -23 6 -23 56 0 30 -4 70 -9 89 -10 40 -44 101
-57 101 -5 0 -9 5 -9 10 0 14 -38 51 -43 42 -2 -4 -3 -32 -2 -62 2 -38 -4 -74
-21 -117 -13 -35 -20 -63 -17 -63 4 0 -2 -7 -13 -15 -10 -8 -16 -15 -12 -15 4
0 -3 -11 -15 -24 -12 -13 -35 -43 -52 -65 -16 -22 -38 -50 -47 -62 -35 -43
-80 -171 -83 -235 -2 -35 -6 -68 -10 -73 -3 -6 -3 -11 2 -11 4 0 8 -17 7 -37
-1 -45 31 -164 47 -173 6 -4 10 -10 10 -14 -2 -12 30 -66 39 -66 6 0 10 -6 10
-13 0 -23 116 -122 213 -182 140 -88 216 -182 230 -287 2 -20 8 -41 11 -47 4
-6 2 -11 -4 -11 -7 0 -8 -6 -2 -17 29 -60 -37 -243 -122 -342 l-21 -24 33 19
c19 10 53 42 78 69 24 28 50 58 58 67 13 15 48 75 51 88 1 3 6 14 11 25 5 11
9 82 9 157 0 76 3 138 8 138 4 0 7 6 7 13 0 37 61 94 152 141 117 62 162 93
214 148 44 47 91 114 96 138 2 8 6 17 10 20 4 3 9 17 10 30 2 14 7 28 12 32 6
3 12 21 14 40 6 47 6 209 0 233 -3 11 -9 35 -13 53 -4 17 -12 32 -17 32 -5 0
-7 3 -5 8 3 4 -2 22 -12 40 -119 235 -166 337 -178 386 -3 11 -5 59 -5 106 0
95 27 186 68 227 38 38 10 35 -37 -5 -69 -59 -97 -93 -129 -154 -17 -32 -30
-61 -31 -65 0 -5 -2 -17 -4 -28 -3 -11 -6 -58 -9 -105 -2 -47 -9 -97 -15 -112
-6 -16 -8 -28 -4 -28 3 0 -7 -10 -23 -22 -16 -13 -32 -23 -35 -23 -4 0 -11 -3
-15 -7 -15 -16 -32 -7 -36 17 -3 14 -1 25 4 25 5 0 6 5 3 10 -3 6 -2 10 3 10
24 0 37 237 16 272 -5 7 -9 18 -9 23 0 18 -59 145 -67 145 -4 0 -4 7 -1 17 5
12 3 14 -7 8 -8 -5 -11 -4 -7 2 4 6 0 30 -9 54 -8 24 -16 59 -16 77 0 17 -4
35 -9 38 -5 3 -7 9 -5 13 3 4 7 32 10 62 7 77 12 96 41 155 24 48 106 137 150
161 11 7 17 14 14 17 -3 3 -8 3 -11 0z m-227 -1168 c17 10 71 15 65 6 -3 -5 1
-9 9 -9 8 0 12 4 9 9 -3 4 0 8 5 8 6 0 11 -4 11 -10 0 -5 5 -10 11 -10 5 0 7
6 3 13 -6 9 -5 9 8 0 8 -7 27 -14 43 -15 15 -2 29 -8 32 -14 2 -7 14 -9 26 -6
19 5 20 3 9 -10 -11 -14 -10 -16 13 -14 14 2 24 1 21 -1 -6 -7 78 -90 86 -86
4 2 5 -3 2 -11 -4 -11 0 -16 10 -16 17 0 18 -20 1 -33 -6 -4 -1 -7 10 -5 15 2
20 -3 20 -21 0 -13 6 -26 13 -28 6 -3 12 -9 12 -14 0 -6 -6 -7 -12 -3 -7 4 -4
-2 6 -14 14 -17 16 -22 5 -22 -11 0 -11 -2 1 -10 10 -6 11 -10 3 -10 -20 0
-15 -20 5 -21 14 0 14 -2 -3 -9 -13 -6 -15 -9 -5 -9 13 -1 13 -2 0 -11 -12 -8
-12 -10 5 -10 15 0 17 -2 6 -9 -8 -5 -12 -19 -9 -35 3 -14 2 -23 -3 -21 -4 3
-10 1 -14 -5 -3 -5 0 -10 7 -10 10 0 10 -2 -1 -9 -7 -5 -11 -13 -7 -19 3 -5
-1 -13 -10 -16 -14 -5 -14 -9 -3 -23 8 -9 10 -14 4 -11 -5 3 -19 -4 -30 -15
-11 -11 -14 -17 -7 -12 11 6 11 3 1 -13 -7 -12 -18 -20 -23 -19 -6 1 -10 -4
-8 -10 1 -7 -5 -13 -14 -13 -8 0 -12 -4 -9 -10 3 -5 -1 -10 -10 -10 -9 0 -19
-9 -22 -21 -4 -16 -8 -17 -14 -7 -7 10 -9 10 -9 1 0 -7 -7 -13 -16 -13 -8 0
-13 -4 -10 -8 3 -5 -1 -9 -9 -10 -8 -1 -22 -3 -30 -4 -12 -1 -12 -4 -2 -16 10
-13 9 -14 -10 -3 -15 7 -23 8 -23 1 0 -5 -5 -10 -11 -10 -5 0 -7 6 -4 13 4 6
0 4 -8 -5 -15 -19 -33 -25 -23 -9 7 10 -9 8 -38 -4 -12 -5 -21 -3 -27 6 -7 12
-9 12 -9 0 0 -11 -3 -11 -17 0 -15 12 -16 12 -8 -1 6 -12 5 -13 -6 -2 -16 15
-33 16 -23 1 3 -6 -5 -3 -20 6 -21 14 -29 15 -41 5 -13 -11 -14 -10 -10 2 4 9
-1 18 -10 22 -9 3 -13 2 -10 -4 3 -6 -1 -7 -9 -4 -9 3 -13 11 -10 16 4 6 1 8
-7 6 -8 -3 -22 7 -31 21 -10 14 -18 21 -18 15 0 -5 6 -16 13 -24 10 -12 9 -12
-5 -1 -10 7 -18 20 -18 28 0 10 -6 13 -16 9 -8 -3 -12 -2 -9 4 3 6 1 10 -4 10
-6 0 -11 6 -11 14 0 7 -8 20 -17 27 -17 13 -17 13 -3 -6 14 -19 14 -19 -3 -6
-13 10 -15 17 -6 27 11 14 10 15 -13 18 -7 1 -13 12 -12 24 0 16 -4 21 -14 17
-12 -4 -13 -3 -2 10 10 12 10 15 -2 15 -10 0 -14 8 -13 25 2 14 -1 25 -7 25
-6 0 -4 7 3 17 12 15 12 16 -1 8 -13 -8 -13 -7 -1 8 12 15 11 17 -3 17 -16 0
-16 1 -2 16 19 19 21 28 4 18 -9 -5 -9 -2 1 9 11 14 11 17 0 17 -10 0 -10 3
-3 8 6 4 10 15 9 24 -2 9 4 19 12 22 13 5 13 9 2 23 -10 12 -10 14 -1 9 8 -5
12 0 12 14 0 14 4 19 13 14 9 -6 9 -5 -1 8 -10 12 -10 17 1 27 8 6 18 7 23 3
4 -4 2 1 -5 11 -12 15 -11 17 10 17 19 0 21 2 9 10 -10 6 -11 10 -3 10 18 0
53 32 47 42 -5 7 10 12 29 9 4 0 7 3 7 8 0 5 9 13 20 16 11 4 17 11 14 17 -4
6 -2 8 4 4 6 -3 13 -2 17 4 4 6 11 8 16 5 5 -4 9 -1 9 5 0 6 5 8 10 5 6 -3 10
-1 10 6 0 8 4 8 16 -1 8 -8 14 -9 13 -4 -4 21 2 26 16 14 8 -6 19 -8 26 -4z"/>
<path d="M4450 7670 c0 -7 -7 -10 -16 -6 -12 5 -15 2 -10 -10 6 -14 4 -15 -9
-4 -13 11 -16 11 -13 -1 2 -8 -4 -13 -14 -13 -11 1 -14 -4 -11 -14 4 -10 2
-13 -5 -8 -13 8 -44 -33 -35 -47 4 -7 -1 -8 -12 -3 -15 5 -16 4 -5 -9 10 -12
10 -15 0 -15 -10 0 -10 -3 -1 -14 9 -11 8 -17 -3 -29 -11 -11 -12 -17 -3 -27
9 -10 9 -11 -2 -5 -11 6 -13 4 -7 -11 4 -10 9 -23 10 -29 1 -5 5 -16 10 -24 5
-8 3 -17 -5 -23 -11 -7 -9 -8 5 -4 14 5 17 2 12 -9 -3 -9 -2 -13 4 -10 6 3 10
1 10 -5 0 -6 5 -8 13 -4 7 5 6 0 -3 -11 -14 -17 -13 -18 2 -13 10 4 19 1 22
-9 4 -9 13 -13 22 -9 8 3 12 2 9 -4 -3 -6 3 -10 14 -10 12 0 21 -5 21 -10 0
-7 26 -10 69 -8 40 1 67 6 64 12 -4 5 3 7 15 4 12 -4 20 -2 16 3 -3 5 0 9 6 9
6 0 9 4 5 9 -3 6 4 8 16 6 18 -4 19 -2 7 12 -9 12 -10 15 0 9 15 -9 42 16 42
39 0 12 5 15 16 11 14 -5 15 -4 4 9 -10 12 -10 15 0 15 8 0 10 3 7 7 -4 3 -1
13 6 21 10 13 9 14 -3 7 -13 -8 -13 -7 -1 8 11 14 11 17 0 17 -11 0 -11 2 1
10 10 6 11 10 3 10 -15 0 -13 21 2 32 6 5 3 8 -7 8 -11 0 -15 5 -12 15 4 8 1
15 -6 15 -6 0 -9 4 -5 9 7 13 -24 43 -37 35 -7 -4 -8 -2 -4 5 11 18 -18 43
-34 28 -7 -7 -10 -7 -8 -2 3 6 0 16 -8 23 -11 10 -14 10 -14 0 0 -10 -2 -10
-8 -1 -9 14 -102 23 -102 10 0 -5 -7 -4 -15 3 -12 10 -15 10 -15 0z"/>
<path d="M2970 7880 c-133 -35 -286 -104 -320 -145 -7 -8 -17 -15 -22 -15 -6
0 -47 -37 -92 -83 -153 -156 -244 -331 -262 -502 -7 -66 -6 -184 1 -238 13
-98 18 -120 46 -199 28 -77 48 -118 161 -325 25 -44 57 -112 72 -150 16 -37
32 -73 37 -79 5 -6 7 -13 4 -16 -3 -2 4 -36 14 -74 11 -38 22 -87 25 -109 3
-22 7 -49 10 -60 2 -11 7 -49 11 -85 4 -36 9 -74 11 -85 2 -11 6 -51 9 -90 9
-116 18 -178 41 -267 3 -13 6 -28 8 -35 1 -7 5 -16 9 -19 4 -4 7 -15 7 -24 0
-22 61 -155 94 -202 14 -21 22 -38 19 -38 -4 0 3 -10 14 -22 11 -13 22 -28 24
-34 10 -28 71 -95 175 -191 62 -57 65 -58 42 -11 -12 24 -23 52 -25 62 -2 11
-7 24 -12 30 -31 38 -56 305 -37 391 3 17 9 48 12 70 4 22 10 48 15 58 6 9 8
17 5 17 -7 0 44 143 55 154 5 6 9 18 9 28 0 10 4 18 9 18 9 0 26 48 23 63 -1
4 2 7 8 7 5 0 10 5 10 10 0 6 5 16 11 23 19 22 116 171 185 285 38 63 76 121
84 130 35 39 43 89 23 142 -4 8 -8 26 -9 40 -2 14 -6 43 -10 65 -10 63 -5 239
8 260 3 6 9 26 13 45 13 61 66 149 132 215 35 36 68 65 73 65 5 0 15 6 22 13
7 6 25 18 39 26 19 9 25 19 22 32 -3 10 -9 19 -13 19 -8 0 -23 34 -25 53 0 4
-6 11 -13 16 -8 5 -13 12 -13 17 1 5 -7 32 -16 59 -10 28 -18 52 -18 55 -1 3
-5 20 -9 38 -4 19 -10 59 -11 90 -2 32 -4 59 -5 62 -2 3 -1 10 0 15 1 6 3 32
5 59 2 27 7 61 10 75 3 14 8 37 11 51 3 14 7 30 9 35 1 6 6 21 11 35 4 14 24
58 44 98 25 50 32 72 23 72 -23 0 -168 -66 -190 -86 -7 -7 -28 -15 -49 -18
-20 -4 -48 -12 -63 -18 -14 -6 -28 -12 -31 -12 -16 -4 -145 -75 -200 -111 -65
-41 -201 -168 -230 -213 -8 -13 -23 -33 -32 -44 -10 -12 -18 -27 -18 -35 0 -7
-4 -13 -9 -13 -8 0 -85 -145 -86 -165 -1 -5 -4 -17 -7 -25 -28 -65 -48 -186
-49 -285 0 -81 11 -234 19 -257 5 -12 9 -43 10 -68 2 -39 0 -42 -10 -25 -6 11
-20 28 -31 38 -13 10 -15 17 -7 17 8 0 5 7 -8 18 -47 41 -126 229 -156 372
-22 104 -14 297 17 390 55 165 95 229 221 352 74 74 140 121 229 164 31 15 57
32 57 36 0 12 -102 5 -170 -12z"/>
<path d="M5915 7889 c-6 -8 6 -17 87 -63 79 -44 191 -139 245 -207 84 -106
135 -222 159 -364 9 -49 9 -245 1 -308 -9 -66 -44 -185 -59 -204 -6 -7 -8 -13
-4 -13 7 0 -48 -103 -67 -127 -5 -7 -6 -13 -3 -13 4 0 -4 -11 -18 -24 -15 -13
-26 -31 -26 -40 0 -14 -3 -14 -14 -4 -10 10 -16 53 -7 53 3 0 12 107 12 133
-1 15 3 21 11 16 6 -4 8 -3 5 3 -4 6 -9 53 -12 104 -6 131 -12 173 -36 259
-22 77 -95 242 -110 248 -5 2 -9 8 -9 13 0 33 -225 263 -301 308 -112 67 -241
120 -298 124 -25 2 -47 9 -49 15 -2 7 -9 12 -15 12 -6 0 -19 8 -29 17 -11 9
-24 18 -31 19 -7 2 -30 10 -52 18 -22 8 -41 13 -43 11 -2 -2 10 -29 26 -61 16
-33 35 -76 41 -96 7 -21 17 -38 22 -38 6 0 8 -4 5 -9 -3 -4 -1 -23 5 -42 40
-128 29 -324 -24 -451 -9 -21 -13 -38 -10 -38 3 0 0 -7 -7 -15 -11 -13 -60
-104 -60 -110 0 -1 21 -13 47 -26 69 -35 159 -123 198 -194 53 -93 73 -186 68
-308 -6 -132 -6 -137 -13 -137 -3 0 -7 -13 -8 -28 -1 -15 -8 -51 -15 -79 -13
-49 -13 -52 15 -92 15 -23 28 -46 28 -51 0 -4 3 -10 8 -12 8 -4 92 -124 92
-133 0 -3 8 -15 18 -26 11 -10 25 -32 33 -47 8 -15 22 -36 32 -46 9 -11 17
-24 17 -28 0 -9 36 -63 59 -87 7 -8 18 -27 23 -43 6 -15 14 -28 20 -28 5 0 6
-5 3 -10 -4 -6 -2 -16 3 -23 11 -14 62 -151 68 -186 3 -13 9 -32 15 -43 5 -10
8 -18 5 -18 -3 0 0 -15 5 -32 22 -71 31 -251 17 -323 -4 -16 -9 -48 -13 -70
-12 -75 -14 -80 -40 -141 -18 -41 -10 -48 22 -21 69 59 179 195 231 287 10 19
29 51 40 70 28 47 72 166 65 174 -4 3 -1 6 6 6 7 0 9 5 6 10 -3 6 -3 16 2 23
4 6 8 14 8 17 2 16 19 107 22 120 2 8 6 33 9 55 2 22 6 54 8 70 3 17 7 59 10
95 7 69 13 122 30 240 6 39 14 80 31 140 23 87 102 258 186 402 53 91 110 229
120 290 0 4 6 29 13 55 13 49 14 239 2 303 -6 30 -30 124 -40 155 -2 6 -7 25
-11 43 -4 17 -11 32 -15 32 -5 0 -13 13 -18 29 -33 93 -180 268 -283 335 -24
16 -55 37 -69 46 -87 59 -377 139 -395 109z m295 -1379 c0 -5 -2 -10 -4 -10
-3 0 -8 5 -11 10 -3 6 -1 10 4 10 6 0 11 -4 11 -10z"/>
<path d="M7146 7168 c9 -18 20 -35 23 -38 11 -9 42 -60 36 -60 -4 0 3 -13 15
-30 12 -16 18 -30 14 -30 -4 0 0 -8 9 -18 10 -10 14 -22 10 -25 -3 -4 -1 -7 6
-7 7 0 9 -4 6 -10 -3 -5 -1 -10 6 -10 7 0 9 -3 6 -7 -4 -3 -2 -12 4 -20 6 -7
9 -13 5 -13 -4 0 3 -18 14 -40 11 -22 18 -40 15 -40 -3 0 1 -10 10 -23 8 -13
12 -26 9 -30 -3 -3 -2 -12 2 -19 5 -7 9 -22 9 -33 0 -11 3 -25 7 -31 4 -5 5
-19 4 -30 -2 -10 0 -23 4 -29 8 -11 10 -245 2 -259 -3 -5 -6 -23 -8 -40 -5
-49 -11 -72 -28 -104 -8 -16 -12 -32 -9 -36 4 -3 1 -6 -6 -6 -7 0 -9 -4 -6
-10 3 -5 1 -10 -5 -10 -6 0 -9 -4 -6 -8 3 -5 -5 -24 -17 -43 -11 -19 -21 -37
-22 -41 0 -3 -10 -18 -22 -32 -13 -14 -21 -26 -18 -26 13 0 -145 -159 -177
-178 -16 -9 -28 -20 -28 -24 0 -4 -5 -8 -10 -8 -13 0 -6 81 15 190 3 14 7 36
10 49 7 38 35 122 56 168 10 24 19 47 19 53 0 5 5 10 11 10 5 0 8 4 4 9 -3 5
2 17 11 25 8 9 13 16 10 16 -8 0 65 112 79 122 7 5 7 8 0 8 -7 0 -7 3 0 8 16
12 55 70 55 83 0 29 -258 -32 -307 -72 -7 -6 -13 -9 -13 -5 0 13 -155 -98
-208 -148 -69 -65 -157 -185 -188 -256 -8 -19 -22 -49 -29 -66 -8 -17 -16 -40
-18 -50 -1 -11 -5 -23 -9 -29 -6 -11 -27 -105 -33 -152 -2 -16 -4 -28 -5 -28
-2 0 -7 -58 -15 -160 -7 -91 -11 -125 -19 -175 -13 -74 -32 -162 -36 -167 -2
-2 -3 -6 -5 -10 -1 -5 -6 -19 -12 -33 -37 -88 -44 -106 -45 -110 0 -3 -12 -22
-24 -42 -13 -21 -24 -42 -24 -48 0 -6 -7 -13 -15 -16 -8 -4 -15 -11 -15 -17 0
-37 -243 -305 -375 -413 -33 -27 -73 -62 -90 -77 -16 -16 -101 -80 -187 -144
-87 -64 -158 -119 -158 -123 0 -18 29 -19 215 -6 55 4 107 9 115 11 8 2 36 6
62 9 113 13 354 85 463 138 142 70 229 130 323 223 45 45 82 85 82 89 0 4 9
17 21 29 11 12 41 53 67 92 26 38 53 76 60 83 6 7 12 18 12 23 0 5 7 9 15 9 8
0 15 3 15 8 0 4 17 18 37 32 87 60 200 170 228 224 17 33 33 29 46 -11 21 -65
9 -225 -23 -285 -18 -37 10 -16 103 74 33 31 59 61 59 65 0 5 9 15 20 23 11 8
20 18 20 23 0 5 6 15 13 22 25 28 33 41 53 75 10 19 21 37 24 40 7 6 60 125
60 133 0 3 5 18 11 34 6 15 10 28 9 28 -1 0 4 14 11 30 50 127 73 408 54 648
-8 89 -21 203 -30 252 -9 50 -20 113 -25 140 -15 84 -48 202 -75 267 -15 35
-27 69 -27 76 -1 6 -5 12 -10 12 -4 0 -8 6 -8 13 0 7 -20 43 -45 80 -25 37
-45 70 -45 73 0 19 -195 224 -214 224 -3 0 1 -15 10 -32z"/>
<path d="M1870 7181 c-8 -6 -18 -7 -22 -5 -4 3 -8 1 -8 -4 0 -5 -24 -34 -54
-63 -69 -69 -113 -128 -170 -225 -59 -103 -93 -179 -111 -246 -7 -29 -25 -97
-40 -151 -44 -166 -58 -307 -59 -577 0 -242 6 -314 40 -458 23 -95 83 -252 96
-252 5 0 8 -5 8 -11 0 -6 9 -23 20 -39 11 -15 17 -30 13 -34 -3 -3 -1 -6 5 -6
5 0 21 -17 33 -37 13 -21 38 -53 56 -71 18 -18 33 -37 33 -42 0 -6 4 -10 10
-10 5 0 24 -15 43 -32 18 -18 43 -42 56 -53 l22 -19 -11 29 c-20 50 -23 77
-24 170 -1 72 3 97 17 119 l19 28 24 -35 c13 -20 24 -41 24 -47 0 -6 5 -8 10
-5 6 3 10 0 10 -7 1 -20 143 -142 211 -180 29 -16 52 -42 79 -88 22 -36 49
-77 62 -92 13 -14 32 -39 43 -54 56 -77 261 -254 293 -254 7 0 12 -4 12 -9 0
-12 214 -115 293 -140 57 -18 126 -36 222 -57 11 -3 38 -7 60 -10 22 -2 54 -6
70 -9 73 -10 303 -16 308 -8 3 5 -22 29 -56 53 -233 169 -520 425 -639 570
-57 70 -118 157 -118 169 0 6 -7 14 -16 19 -9 5 -15 12 -15 15 0 4 -10 31 -23
61 -43 97 -78 208 -91 286 -3 19 -8 47 -11 62 -8 39 -14 93 -19 178 -6 96 -16
174 -31 240 -3 14 -8 36 -11 50 -8 44 -66 174 -107 240 -131 210 -354 364
-586 406 -19 3 -42 7 -50 9 -8 1 -20 -2 -27 -7 -13 -11 -4 -34 29 -72 10 -11
24 -32 30 -48 7 -15 16 -28 20 -28 5 0 8 -6 8 -14 0 -8 3 -16 8 -18 10 -4 89
-158 108 -210 28 -77 35 -118 59 -310 3 -27 1 -49 -5 -53 -5 -3 -10 -1 -10 4
0 6 -4 11 -9 11 -5 0 -41 32 -79 70 -38 39 -67 70 -65 70 3 0 -9 16 -27 36
-17 20 -36 47 -42 60 -6 13 -15 24 -20 24 -4 0 -8 3 -7 8 2 15 -14 52 -22 52
-5 0 -9 9 -9 19 0 11 -5 23 -10 26 -6 4 -8 11 -5 16 4 5 2 9 -2 9 -5 0 -9 10
-10 22 -1 11 -7 24 -13 28 -7 4 -11 10 -11 14 1 3 1 7 0 9 -7 24 -12 62 -13
104 0 29 -3 53 -6 53 -3 0 -6 27 -6 60 -1 33 2 60 5 60 3 0 6 26 5 57 -1 32 1
62 4 67 5 9 7 23 14 94 1 6 5 12 10 12 5 0 6 4 3 10 -3 5 0 20 6 32 7 13 14
34 15 48 2 14 8 26 14 28 5 2 8 8 4 13 -3 5 -1 9 3 9 5 0 9 10 10 22 1 11 7
24 13 28 7 4 11 10 10 14 -4 13 22 66 32 66 5 0 6 5 3 10 -3 6 -1 10 5 10 6 0
9 4 6 8 -3 5 3 18 12 28 10 10 19 24 19 29 1 6 12 20 23 33 24 24 24 27 0 13z"/>
<path d="M3952 6770 c-19 -8 -56 -71 -66 -115 -2 -5 -6 -17 -9 -25 -39 -101
-45 -131 -46 -227 -1 -123 -3 -127 -132 -260 -52 -54 -117 -127 -144 -163 -54
-71 -57 -75 -83 -107 -10 -12 -27 -38 -37 -57 -11 -20 -23 -36 -27 -36 -5 0
-8 -4 -8 -10 0 -5 -17 -38 -38 -72 -21 -35 -45 -79 -54 -98 -31 -66 -60 -135
-63 -150 -2 -8 -8 -33 -14 -55 -6 -22 -14 -58 -18 -80 -8 -45 -9 -299 -1 -330
15 -61 22 -81 31 -92 5 -7 7 -13 3 -13 -9 0 63 -138 103 -195 90 -132 250
-306 436 -474 33 -30 51 -48 40 -40 -18 13 -19 13 -6 -3 7 -10 20 -18 28 -18
10 0 13 -6 9 -17 -4 -10 -4 -15 -1 -11 9 9 55 -33 55 -49 0 -8 3 -12 8 -10 4
3 16 -7 27 -22 12 -16 14 -22 4 -16 -8 6 -6 2 4 -7 11 -10 15 -18 11 -18 -5 0
-4 -4 1 -8 6 -4 17 -16 25 -26 13 -18 13 -19 0 -11 -8 4 -5 -2 8 -14 13 -13
21 -28 19 -34 -2 -6 7 -22 20 -35 27 -27 31 -40 6 -21 -17 13 -17 13 0 -7 9
-11 14 -24 10 -27 -3 -4 0 -7 7 -7 7 0 10 -3 7 -7 -4 -3 -1 -16 7 -28 8 -12
16 -35 18 -51 1 -16 6 -31 10 -34 11 -8 13 -74 3 -90 -7 -13 -6 -13 7 -2 13
11 15 8 14 -20 -1 -18 -5 -39 -9 -46 -5 -7 -3 -14 5 -17 8 -3 14 -15 15 -25 1
-12 -3 -18 -9 -14 -6 4 -6 -2 1 -15 7 -11 8 -21 4 -21 -4 0 -1 -5 7 -10 10 -7
11 -10 2 -10 -8 0 -11 -11 -9 -35 3 -21 0 -35 -7 -35 -6 0 -4 -5 4 -10 8 -5
10 -10 4 -10 -6 0 -10 -10 -10 -22 1 -13 -2 -29 -7 -35 -5 -7 -7 -20 -3 -28 3
-8 1 -15 -5 -15 -6 0 -7 -5 -3 -11 3 -6 0 -15 -7 -20 -10 -6 -11 -9 -1 -9 6 0
12 -5 12 -11 0 -5 -4 -7 -10 -4 -5 3 -11 -2 -12 -12 0 -10 -2 -23 -2 -30 -1
-7 -10 -20 -21 -28 -11 -9 -13 -13 -5 -9 12 7 13 5 3 -8 -7 -8 -10 -18 -6 -21
3 -4 1 -7 -5 -7 -7 0 -11 -6 -9 -12 1 -7 -3 -12 -9 -11 -8 1 -10 -6 -6 -19 3
-14 1 -19 -6 -14 -8 5 -12 -1 -12 -14 0 -14 -8 -24 -21 -27 -13 -4 -17 -8 -9
-13 7 -4 2 -13 -14 -24 -14 -9 -26 -22 -26 -29 0 -8 4 -7 11 3 9 13 10 13 6 0
-2 -8 -9 -14 -15 -13 -5 1 -16 -5 -24 -14 -11 -14 -11 -16 2 -9 8 4 6 1 -4 -8
-10 -8 -23 -13 -27 -10 -5 3 -6 -3 -2 -12 3 -10 2 -15 -3 -12 -11 7 -35 -17
-27 -26 4 -3 -1 -6 -9 -6 -9 0 -19 -7 -22 -16 -3 -8 -10 -12 -16 -9 -5 3 -10
0 -10 -8 0 -8 -8 -14 -17 -13 -10 0 -18 -6 -18 -14 -1 -8 -6 -14 -13 -13 -7 2
-12 -1 -12 -7 0 -5 -6 -7 -14 -4 -8 3 -17 0 -22 -7 -5 -8 -3 -10 6 -4 9 5 11
4 6 -4 -4 -6 -12 -8 -18 -5 -6 4 -17 -1 -24 -10 -8 -11 -14 -13 -19 -7 -3 6
-12 11 -18 11 -7 0 -6 -4 3 -10 13 -8 12 -10 -3 -10 -11 0 -15 -4 -11 -12 5
-8 2 -9 -10 -5 -10 4 -19 1 -23 -8 -4 -12 -9 -13 -18 -5 -10 8 -17 6 -27 -7
-7 -10 -20 -18 -28 -18 -8 0 -14 -5 -13 -11 1 -6 -9 -10 -23 -8 -15 1 -22 -2
-17 -8 4 -7 -2 -9 -15 -6 -12 4 -20 3 -17 -2 3 -4 -3 -14 -12 -21 -12 -10 -14
-10 -9 -1 9 15 1 15 -25 1 -11 -5 -17 -14 -14 -19 3 -4 -4 -6 -15 -3 -12 3
-22 -1 -26 -10 -3 -9 -12 -13 -21 -10 -12 5 -14 3 -8 -7 6 -10 4 -12 -8 -7
-10 3 -17 2 -17 -3 0 -5 -8 -7 -17 -3 -10 3 -15 3 -11 -2 9 -10 -21 -34 -42
-35 -8 0 -23 -10 -35 -23 -11 -13 -16 -17 -11 -10 6 10 4 12 -8 7 -9 -3 -16
-9 -16 -13 0 -4 -7 -16 -16 -27 -8 -10 -13 -12 -9 -4 4 8 -2 5 -13 -7 -11 -12
-22 -19 -26 -16 -3 4 -6 2 -6 -4 0 -5 -17 -28 -39 -50 -21 -23 -42 -54 -45
-70 -4 -15 -15 -37 -24 -47 -9 -11 -11 -16 -5 -12 9 5 11 2 7 -8 -3 -9 -9 -14
-13 -12 -12 8 -3 -95 11 -111 11 -14 11 -16 -2 -8 -13 8 -13 7 0 -9 8 -10 15
-25 16 -34 2 -8 9 -19 16 -23 7 -5 9 -9 4 -9 -5 0 1 -8 12 -19 12 -10 22 -23
22 -28 0 -6 11 -18 24 -29 14 -10 22 -22 20 -26 -3 -5 -2 -7 3 -6 14 5 53 -28
45 -38 -4 -5 -3 -6 2 -2 8 7 95 -37 107 -55 3 -5 9 -8 13 -7 16 3 86 -24 86
-33 0 -6 3 -7 7 -4 3 4 16 1 27 -6 12 -7 31 -12 44 -11 12 1 22 -1 22 -5 0 -3
10 -7 23 -8 52 -6 74 -10 85 -17 7 -4 12 -2 12 5 0 10 3 10 11 2 6 -6 18 -9
25 -6 8 3 21 0 29 -7 12 -10 15 -10 15 0 0 8 4 9 13 3 6 -5 41 -9 77 -9 36 1
68 -3 72 -9 5 -6 8 -5 8 3 0 10 5 10 20 2 11 -6 20 -8 20 -4 0 3 8 0 17 -7 10
-9 14 -9 10 -2 -6 9 4 11 35 9 23 -2 44 -9 46 -15 3 -9 8 -9 17 -1 9 8 15 8
20 0 3 -6 11 -8 16 -5 5 4 9 1 9 -6 0 -7 3 -9 7 -6 3 4 12 2 20 -4 10 -9 13
-8 14 2 0 8 4 5 9 -6 5 -12 9 -14 9 -6 1 11 5 10 17 -5 8 -10 12 -13 9 -6 -6
11 -3 12 13 3 11 -6 27 -17 34 -23 8 -7 23 -18 33 -24 11 -6 25 -21 31 -32 6
-12 14 -19 17 -15 4 3 7 -1 7 -11 0 -9 4 -15 9 -12 5 3 11 -4 14 -15 4 -13 10
-18 18 -13 8 4 10 3 5 -4 -4 -7 -3 -12 3 -12 6 0 7 -7 4 -17 -4 -10 -2 -14 4
-10 6 4 14 -4 17 -18 4 -14 11 -25 17 -25 6 0 8 -4 5 -9 -3 -4 3 -27 14 -49
21 -43 27 -68 10 -42 -5 8 -10 10 -10 4 0 -6 3 -14 8 -18 4 -4 8 -12 8 -17 1
-5 2 -10 4 -11 8 -11 6 -38 -3 -38 -9 0 -9 -2 -1 -8 15 -9 14 -92 0 -92 -7 0
-7 -3 1 -8 12 -8 13 -69 0 -89 -4 -6 -2 -15 4 -19 8 -4 7 -9 -2 -16 -11 -8
-11 -11 -1 -15 10 -4 10 -8 1 -20 -10 -12 -10 -16 2 -24 8 -5 9 -9 2 -9 -6 0
-10 -11 -8 -25 1 -14 -2 -25 -6 -25 -5 0 -6 -14 -2 -32 5 -25 3 -29 -8 -23
-11 7 -12 6 -3 -6 12 -15 11 -100 -1 -120 -6 -8 -4 -10 4 -4 9 5 12 0 9 -16
-2 -13 3 -29 11 -35 11 -9 12 -12 1 -19 -9 -5 -11 -4 -6 3 4 7 2 12 -3 12 -14
0 -14 -17 0 -26 6 -3 9 -15 6 -25 -3 -11 0 -19 5 -19 6 0 4 -8 -3 -17 -10 -11
-10 -14 -1 -9 11 6 17 -11 13 -36 0 -4 8 -24 19 -44 12 -20 15 -33 8 -29 -7 4
-6 1 3 -7 9 -7 15 -21 13 -30 -1 -10 4 -18 11 -18 7 0 16 -7 19 -16 6 -15 4
-15 -11 -3 -17 13 -17 13 -3 -6 8 -11 23 -28 35 -38 11 -10 14 -15 6 -11 -9 4
-12 3 -7 -4 3 -6 14 -10 24 -9 15 1 17 12 16 88 0 48 3 86 8 83 4 -3 11 13 14
35 4 24 11 38 17 34 5 -3 7 -2 4 4 -3 5 5 33 18 61 13 29 21 52 18 52 -3 0 1
8 9 18 8 9 18 25 21 35 4 11 12 15 18 11 8 -4 9 -3 5 5 -10 16 3 53 16 45 7
-4 8 -2 4 4 -4 6 0 24 8 40 8 16 12 32 9 36 -4 3 -1 6 5 6 7 0 11 3 11 8 -4
22 2 42 11 37 6 -4 7 1 3 11 -4 10 -2 15 4 11 6 -4 9 6 8 23 -1 17 2 30 7 30
4 0 8 11 8 25 0 14 4 25 9 25 5 0 9 12 9 26 0 15 6 30 13 35 11 7 11 9 1 9
-10 0 -10 5 -2 20 6 10 10 23 9 27 -1 4 0 10 1 13 21 56 28 370 8 370 -4 0 -5
7 -2 15 4 8 2 15 -3 15 -5 0 -9 15 -8 33 0 17 -4 35 -8 38 -5 4 -10 18 -10 33
-1 14 -7 26 -13 26 -6 0 -10 11 -9 24 2 14 -3 27 -10 30 -7 2 -12 12 -11 20 2
18 16 34 16 19 0 -6 11 -9 25 -8 14 2 25 -1 25 -6 0 -4 7 -6 15 -3 8 3 20 2
27 -2 15 -10 33 -14 71 -16 15 0 27 -4 27 -8 0 -3 21 -7 47 -9 26 -1 51 -8 55
-14 6 -9 8 -9 8 1 0 9 5 10 18 4 9 -5 52 -9 94 -8 46 1 78 -3 78 -9 0 -5 5 -3
10 5 7 11 10 11 10 2 0 -7 4 -11 8 -8 15 9 157 10 171 2 10 -6 12 -5 7 2 -4 7
-4 12 1 13 64 7 73 6 73 -4 0 -7 4 -6 10 3 5 8 17 15 27 15 10 0 24 4 31 8 7
5 12 3 12 -3 0 -7 7 -5 16 5 13 13 19 13 32 3 9 -7 13 -8 9 -2 -7 12 60 37 75
28 4 -3 8 -1 8 4 0 9 26 19 55 22 6 1 14 8 18 16 4 8 17 14 27 14 11 0 20 5
20 10 0 6 6 10 13 10 7 0 23 9 35 20 12 11 25 20 30 20 5 0 17 11 28 24 10 14
21 23 26 20 4 -3 8 1 8 9 0 7 13 26 30 42 16 15 27 31 25 35 -3 4 2 13 11 20
8 7 13 19 10 26 -3 7 0 14 6 16 16 6 20 128 5 147 -9 12 -9 13 1 7 18 -11 14
5 -5 20 -15 11 -15 13 -3 14 10 0 7 7 -10 20 -21 17 -22 19 -5 15 16 -5 16 -3
-2 6 -13 7 -23 19 -23 28 0 17 -29 46 -72 74 -16 10 -28 24 -28 33 0 8 -4 12
-10 9 -5 -3 -10 -1 -10 5 0 6 -4 8 -10 5 -5 -3 -10 -1 -10 5 0 6 -4 8 -10 5
-5 -3 -10 1 -10 10 0 9 -4 13 -10 10 -5 -3 -10 -1 -10 5 0 6 -3 9 -7 7 -5 -3
-23 3 -41 13 -19 10 -27 20 -20 22 7 3 3 7 -10 10 -12 4 -20 2 -16 -3 3 -5 -2
-6 -10 -3 -9 3 -14 10 -11 14 3 4 -2 11 -11 14 -10 4 -13 2 -9 -7 4 -6 1 -5
-7 3 -7 8 -20 16 -28 18 -8 2 -16 8 -18 13 -2 5 -8 9 -13 9 -6 0 -7 -6 -3 -12
4 -7 -3 -3 -15 10 -24 24 -36 29 -25 9 4 -6 -5 -1 -20 13 -16 14 -37 24 -48
22 -12 -2 -18 1 -14 7 4 6 -2 8 -14 6 -11 -2 -20 1 -20 6 0 6 -4 7 -10 4 -5
-3 -10 -1 -10 4 0 6 -6 10 -12 8 -7 -1 -12 3 -11 9 1 6 -9 12 -23 12 -15 0
-32 9 -40 21 -8 11 -20 21 -26 21 -7 0 -3 -7 8 -15 10 -8 15 -15 11 -15 -4 0
-20 12 -34 28 -15 15 -23 20 -19 12 4 -8 0 -6 -8 4 -9 11 -16 16 -16 11 0 -4
-9 2 -19 14 -11 12 -23 23 -28 23 -19 2 -52 31 -46 41 3 6 1 7 -5 3 -7 -4 -12
-2 -12 3 0 6 -7 11 -17 11 -9 0 -13 3 -10 6 7 8 -31 44 -45 44 -5 0 -6 5 -3
10 3 6 -1 13 -9 16 -9 3 -16 13 -16 21 0 8 -3 12 -7 10 -5 -3 -17 7 -28 22
-12 16 -14 22 -4 16 8 -5 7 -2 -4 7 -10 10 -16 22 -13 27 4 5 1 13 -5 17 -8 5
-9 3 -4 -6 6 -9 4 -11 -4 -6 -7 5 -10 14 -7 22 3 8 -1 14 -9 14 -14 0 -22 35
-15 65 1 6 -2 7 -6 3 -9 -10 -36 42 -30 59 3 7 1 15 -5 18 -5 4 -7 11 -4 16 4
5 1 9 -6 9 -8 0 -8 4 1 15 10 12 10 15 0 15 -7 0 -10 8 -7 20 3 11 1 22 -3 25
-5 3 -7 16 -5 30 1 14 -2 25 -8 25 -6 0 -5 5 1 13 7 8 7 18 2 27 -5 8 -5 21 1
31 5 11 5 20 0 23 -11 7 -9 25 3 45 6 10 5 12 -2 7 -14 -9 -15 3 -3 23 6 9 6
22 0 32 -6 12 -5 20 2 25 6 3 9 15 6 25 -3 11 1 26 9 33 11 11 11 16 1 19 -9
4 -9 7 0 14 6 5 10 21 9 36 -2 15 1 27 6 27 6 0 7 7 4 16 -3 9 -2 12 5 9 6 -4
10 -1 8 6 -3 28 1 50 10 45 4 -3 8 2 8 12 0 34 3 43 13 37 6 -3 7 1 4 9 -3 9
-1 16 6 16 6 0 8 4 5 10 -7 11 25 70 37 70 4 0 8 3 7 8 -3 17 14 51 22 46 5
-3 9 1 9 9 0 8 7 17 15 21 8 3 14 9 13 14 -5 15 44 72 55 65 6 -3 7 -1 3 6 -9
14 12 43 25 35 5 -3 6 3 2 12 -4 12 -3 15 5 10 8 -5 10 -2 6 8 -3 9 -2 16 3
16 25 0 331 300 414 406 41 53 64 89 126 204 28 52 70 159 79 205 18 91 8 341
-16 386 -6 10 -8 19 -6 19 8 0 -56 174 -66 181 -6 3 -9 9 -8 13 4 15 -103 187
-179 288 -96 129 -111 146 -225 265 -49 51 -96 102 -104 114 -9 14 -15 54 -18
122 -3 101 -12 145 -52 242 -11 28 -19 52 -18 55 0 3 -9 22 -21 43 -41 68 -93
37 -86 -51 10 -131 8 -245 -5 -259 -19 -19 -24 -17 -62 22 -41 43 -82 58 -106
41 -16 -12 -16 -16 2 -62 46 -123 103 -199 242 -328 64 -59 125 -137 191 -243
26 -43 49 -80 49 -83 1 -3 8 -23 18 -45 19 -46 27 -81 27 -112 -1 -13 3 -23 8
-23 6 0 5 -10 -2 -21 -9 -17 -8 -20 2 -14 9 6 11 2 7 -13 -4 -12 -2 -20 3 -16
5 3 9 -2 9 -11 0 -9 -4 -14 -8 -11 -5 3 -9 -1 -9 -8 0 -9 7 -12 16 -8 13 5 14
3 4 -9 -10 -12 -10 -18 0 -29 10 -10 9 -11 -2 -5 -10 6 -12 4 -5 -6 13 -22 16
-51 3 -43 -8 5 -8 1 0 -14 8 -15 8 -22 -2 -25 -9 -4 -9 -6 1 -6 6 -1 12 -8 12
-16 0 -8 -6 -15 -12 -15 -9 0 -8 -4 2 -10 13 -8 13 -10 1 -10 -11 0 -12 -3 -3
-12 7 -7 8 -17 1 -29 -5 -10 -9 -22 -8 -26 1 -4 0 -11 -1 -15 -1 -5 -4 -12 -5
-18 -1 -5 -4 -12 -5 -15 -3 -5 -6 -32 -9 -61 0 -8 -5 -12 -11 -9 -6 3 -7 -1
-4 -9 4 -10 1 -16 -7 -16 -12 0 -12 -2 -1 -9 11 -6 10 -10 -4 -15 -16 -6 -16
-8 -4 -16 13 -8 12 -10 -3 -10 -10 0 -15 -4 -12 -10 8 -13 -19 -52 -31 -42 -4
4 -2 -2 6 -12 10 -13 10 -17 3 -12 -8 4 -13 1 -13 -8 0 -9 -5 -16 -10 -16 -6
0 -9 -6 -8 -12 2 -7 -3 -12 -10 -10 -8 1 -11 -2 -8 -6 7 -11 -32 -58 -45 -55
-4 2 -6 -4 -3 -12 4 -10 0 -15 -11 -15 -9 0 -13 -5 -10 -10 3 -6 -1 -13 -9
-16 -9 -3 -13 -10 -10 -15 3 -5 -2 -6 -10 -3 -9 3 -17 -2 -21 -15 -3 -12 -11
-19 -16 -16 -5 4 -9 -1 -9 -9 0 -8 -5 -18 -12 -22 -7 -4 -8 -3 -4 4 4 7 3 12
-2 12 -5 0 -12 -9 -15 -20 -3 -11 -11 -20 -19 -19 -10 0 -10 2 0 6 6 2 12 10
12 16 -1 7 -9 2 -18 -9 -10 -12 -28 -25 -40 -28 -12 -4 -22 -12 -22 -17 0 -5
-7 -9 -16 -9 -8 0 -12 -4 -9 -10 7 -12 -40 -24 -56 -14 -7 4 -9 3 -6 -3 8 -12
-20 -26 -34 -17 -5 3 -9 -3 -9 -13 0 -11 -3 -14 -8 -7 -5 8 -15 8 -35 -1 -15
-6 -25 -13 -23 -16 2 -2 -7 -5 -20 -5 -15 -1 -22 2 -18 10 3 6 -2 2 -10 -8
-12 -15 -16 -16 -16 -5 0 9 -3 10 -8 3 -4 -6 -15 -10 -24 -8 -10 1 -18 -3 -18
-9 0 -5 -3 -7 -7 -4 -3 4 -13 1 -21 -6 -10 -8 -13 -8 -9 -1 4 7 0 14 -8 18 -8
3 -14 2 -14 -2 3 -19 -2 -25 -11 -12 -5 8 -10 11 -10 5 0 -11 -71 -12 -89 -1
-6 4 -11 3 -11 -1 0 -14 -64 -9 -78 7 -8 8 -11 9 -7 3 8 -17 -27 -17 -44 0
-11 10 -13 10 -7 0 4 -7 3 -13 -3 -13 -5 0 -11 6 -14 13 -3 9 -7 9 -19 -1 -12
-10 -18 -10 -27 2 -6 8 -21 12 -31 9 -11 -3 -20 -1 -20 5 0 6 -11 9 -25 7 -14
-1 -28 2 -32 8 -4 6 -1 7 7 2 9 -5 11 -4 6 3 -5 9 -13 9 -28 1 -15 -8 -19 -8
-14 0 4 6 1 11 -8 11 -8 0 -17 6 -19 13 -4 9 -6 9 -6 -1 -1 -10 -5 -10 -17 2
-8 9 -20 14 -25 11 -5 -4 -9 -2 -9 4 0 6 -8 7 -17 4 -16 -6 -16 -5 -5 10 12
14 11 16 -7 12 -12 -2 -21 1 -21 7 0 6 -3 8 -6 5 -11 -10 -45 13 -38 25 4 7 3
8 -4 4 -7 -4 -12 -2 -12 4 0 7 -7 9 -16 6 -8 -3 -13 -2 -11 2 3 4 -5 16 -16
27 -11 11 -17 14 -13 8 5 -9 2 -11 -8 -7 -9 3 -15 9 -14 12 2 22 -4 32 -23 32
-11 0 -18 4 -14 10 3 5 -6 17 -20 26 -14 9 -25 22 -25 28 0 6 -9 18 -20 26
-11 8 -20 20 -20 27 0 7 -5 13 -10 13 -6 0 -16 12 -22 28 -7 15 -21 38 -32 51
-12 13 -15 21 -8 17 6 -4 12 -2 12 3 0 6 -5 11 -11 11 -6 0 -8 7 -5 16 3 8 2
13 -3 10 -5 -3 -12 1 -15 10 -4 10 -2 13 7 9 6 -4 4 0 -6 8 -14 11 -15 16 -5
20 11 4 11 6 0 6 -7 1 -10 6 -7 11 3 6 2 10 -2 10 -9 0 -13 20 -16 73 -1 15
-6 27 -11 27 -5 0 -3 6 3 14 7 8 8 17 3 20 -14 8 -20 76 -7 76 5 0 4 4 -4 9
-9 6 -10 10 -2 16 9 5 9 10 0 21 -6 8 -8 14 -4 14 4 0 1 8 -6 17 -12 14 -12
15 0 9 10 -7 12 2 10 42 -2 27 -1 48 2 46 4 -2 10 3 13 12 4 10 2 13 -7 8 -8
-5 -7 -2 2 9 9 12 10 17 2 17 -7 0 -9 5 -6 11 4 5 8 20 10 32 2 12 9 40 15 62
6 22 12 45 13 52 3 13 88 165 97 173 3 3 11 17 19 32 8 15 23 37 33 48 10 11
16 20 13 20 -3 0 51 57 120 126 69 69 125 132 125 139 0 7 7 15 15 19 8 3 15
12 15 21 0 8 4 15 9 15 5 0 11 8 14 18 3 9 22 45 41 79 l36 63 -24 16 c-29 18
-49 10 -108 -42 -38 -34 -63 -36 -70 -6 -7 26 -2 244 6 269 10 32 -31 75 -62
63z m572 -4076 c4 -10 2 -13 -7 -8 -6 4 -2 -3 11 -15 12 -12 20 -26 17 -32 -4
-5 1 -9 10 -9 11 0 15 -7 13 -22 -2 -15 5 -26 22 -35 14 -7 19 -13 11 -13 -9
0 -7 -6 7 -19 12 -10 19 -21 15 -25 -3 -3 -1 -6 6 -6 17 0 42 -26 33 -34 -3
-4 1 -4 10 -1 9 4 18 0 21 -9 4 -9 13 -16 22 -16 8 0 15 -4 15 -10 0 -5 7 -10
15 -10 8 0 15 -6 15 -12 0 -9 4 -8 10 2 9 13 10 13 11 0 1 -8 1 -19 0 -24 -1
-5 5 -4 13 4 11 8 16 9 16 1 0 -6 9 -11 19 -11 11 0 22 -4 25 -9 3 -4 19 -11
36 -15 20 -3 29 -10 24 -17 -4 -8 0 -8 15 0 17 10 21 9 21 -4 0 -9 5 -13 10
-10 6 3 10 2 10 -3 0 -5 12 -7 26 -4 19 3 25 1 20 -6 -5 -8 3 -11 23 -8 22 2
31 -1 31 -12 0 -12 2 -12 17 -1 9 8 14 9 10 3 -4 -8 3 -12 21 -13 15 0 37 0
49 -1 12 0 25 -5 28 -11 5 -7 11 -6 21 2 8 6 14 7 14 2 0 -5 15 -10 33 -11 17
-2 34 -8 36 -13 2 -7 7 -6 12 2 6 10 11 11 17 3 4 -5 16 -11 27 -11 11 0 47
-2 80 -3 33 -1 66 -7 74 -14 11 -8 13 -8 7 2 -4 6 -2 12 3 12 6 0 11 -4 11 -9
0 -10 19 -9 37 2 6 4 15 3 18 -3 5 -8 12 -7 23 2 12 10 14 10 8 1 -5 -9 1 -13
21 -14 15 0 22 -3 16 -6 -7 -2 -15 -3 -17 -1 -3 2 -12 -6 -21 -17 -9 -11 -13
-13 -9 -5 6 12 4 13 -6 3 -10 -9 -17 -9 -26 -2 -9 7 -16 5 -24 -11 -10 -18
-14 -19 -28 -8 -12 10 -14 10 -8 1 5 -10 -3 -13 -28 -13 -22 0 -36 -5 -36 -12
0 -10 -3 -9 -9 1 -6 9 -11 10 -15 2 -10 -15 -29 -14 -20 2 5 9 4 9 -6 0 -7 -6
-19 -9 -28 -6 -11 5 -13 3 -7 -8 8 -12 6 -12 -9 0 -14 12 -19 12 -26 2 -4 -7
-10 -9 -13 -5 -3 5 -55 9 -116 9 -61 0 -111 4 -111 8 0 5 -8 3 -17 -4 -12 -10
-15 -10 -9 -1 5 9 -1 12 -21 12 -67 0 -73 1 -67 12 5 7 1 9 -9 5 -9 -3 -19 -1
-23 5 -4 7 -9 6 -15 -3 -6 -10 -9 -10 -9 -2 0 7 -7 10 -15 7 -9 -4 -15 0 -15
7 0 11 -3 11 -10 -1 -6 -10 -10 -11 -10 -2 0 6 -9 12 -20 12 -11 0 -20 6 -21
13 0 9 -2 9 -6 0 -3 -10 -8 -9 -20 2 -16 17 -38 21 -28 5 3 -6 -1 -7 -9 -4 -9
3 -16 10 -16 15 0 5 -12 9 -26 9 -14 0 -32 7 -40 15 -17 17 -39 21 -29 5 3 -6
-1 -7 -9 -4 -9 3 -16 11 -16 16 0 6 -15 8 -34 6 -19 -2 -34 -1 -34 2 2 18 -4
23 -11 11 -8 -13 -12 -13 -27 0 -11 9 -15 9 -10 2 4 -7 3 -13 -3 -13 -5 0 -13
5 -16 10 -5 8 -12 7 -23 -2 -12 -11 -16 -11 -20 1 -4 11 -6 11 -13 0 -8 -12
-11 -11 -19 1 -6 9 -10 10 -10 3 0 -11 -7 -13 -57 -14 -13 0 -25 -5 -29 -10
-3 -6 -12 -5 -22 3 -12 10 -14 10 -8 1 4 -7 2 -13 -3 -13 -6 0 -11 6 -11 13 0
7 -5 5 -10 -5 -6 -10 -19 -15 -30 -13 -11 2 -20 -2 -20 -8 0 -7 -4 -6 -10 3
-9 13 -10 13 -10 0 0 -13 -1 -13 -10 0 -8 13 -10 12 -10 -4 0 -15 -3 -16 -15
-6 -12 10 -15 10 -15 0 0 -9 -4 -9 -17 1 -9 8 -14 9 -10 3 10 -16 -18 -25 -33
-11 -10 9 -11 9 -6 0 4 -7 3 -13 -1 -13 -5 0 -15 6 -22 13 -9 7 -11 7 -8 1 4
-7 0 -14 -8 -18 -8 -3 -15 0 -16 7 0 9 -2 8 -6 -1 -4 -10 -8 -10 -20 -1 -8 7
-13 8 -12 3 4 -21 -2 -26 -16 -14 -12 10 -16 9 -21 -3 -4 -12 -12 -13 -35 -7
-21 6 -27 5 -23 -2 5 -7 2 -9 -8 -5 -9 3 -21 0 -28 -6 -10 -9 -11 -9 -6 1 4 6
2 12 -3 12 -6 0 -11 -6 -11 -12 0 -8 -3 -9 -8 -3 -9 13 -35 18 -27 5 3 -5 -1
-10 -10 -10 -9 0 -13 5 -9 11 5 8 1 8 -13 0 -14 -7 -24 -7 -33 2 -8 8 -11 8
-7 1 5 -8 -17 -11 -77 -10 -53 1 -82 5 -78 11 3 6 -2 4 -11 -4 -14 -11 -17
-11 -17 0 0 11 -2 11 -10 -1 -5 -8 -10 -10 -10 -4 0 6 -17 10 -37 9 -21 -1
-41 4 -45 9 -5 7 -8 6 -8 -2 0 -7 -5 -10 -10 -7 -6 4 -7 12 -3 18 4 7 0 6 -10
-2 -14 -11 -17 -11 -17 0 0 11 -3 11 -11 -1 -9 -13 -10 -13 -6 0 4 17 77 33
77 17 0 -6 9 -2 19 7 14 13 21 14 27 5 5 -8 3 -10 -6 -4 -9 5 -11 4 -6 -4 6
-9 11 -9 22 0 7 6 21 9 29 5 8 -3 15 0 15 6 0 7 5 6 15 -2 11 -9 15 -9 15 -1
0 7 10 10 24 7 13 -2 27 -2 30 2 12 11 36 10 36 -1 0 -9 2 -9 8 -1 6 10 21 14
65 15 9 0 17 4 17 8 0 12 33 10 49 -3 11 -8 13 -8 7 2 -7 12 3 16 38 12 12 -1
16 3 11 10 -6 9 -2 9 15 0 15 -8 20 -8 16 -1 -4 6 -3 11 3 11 5 0 12 -6 14
-12 3 -8 6 -7 6 4 1 9 6 20 13 24 7 4 8 3 4 -4 -5 -8 1 -12 14 -12 12 0 19 4
16 9 -4 5 5 8 19 6 14 -1 25 1 25 6 0 5 8 5 17 2 12 -5 15 -2 10 10 -4 11 -2
14 8 10 8 -3 12 -10 8 -17 -4 -6 1 -5 10 3 9 7 14 18 11 23 -4 6 3 5 15 -1 17
-10 24 -8 38 9 10 11 22 20 28 20 5 0 3 -5 -5 -10 -10 -7 -11 -10 -2 -10 7 0
15 7 18 15 4 8 10 13 14 10 5 -3 12 -1 15 5 5 8 11 7 21 -1 12 -10 13 -9 7 7
-6 17 -5 17 10 5 15 -12 17 -12 11 3 -4 11 -1 16 10 16 9 0 16 6 16 13 0 8 4
7 10 -3 8 -13 10 -12 10 2 0 10 3 17 8 17 20 -3 25 2 12 12 -13 9 -12 10 3 5
10 -3 22 2 29 13 6 11 18 17 25 14 8 -3 13 0 11 8 -2 8 2 13 9 12 8 -2 10 4 6
14 -4 10 -2 14 5 9 6 -3 13 3 17 14 4 11 11 18 16 15 13 -9 11 9 -3 24 -11 10
-10 11 5 6 10 -4 17 -2 17 5 0 6 5 8 13 4 9 -6 9 -5 -1 8 -10 12 -9 18 3 28 9
7 14 18 12 24 -4 11 13 35 24 36 4 0 10 -7 13 -16z"/>
<path d="M4355 2479 c-4 -6 -5 -12 -2 -15 2 -3 7 2 10 11 7 17 1 20 -8 4z"/>
<path d="M1222 6100 c-18 -17 -29 -30 -26 -30 4 0 -5 -11 -20 -25 -14 -13 -26
-28 -26 -32 0 -5 -9 -16 -20 -26 -11 -9 -20 -24 -20 -32 0 -8 -4 -15 -8 -15
-5 0 -14 -16 -22 -35 -8 -19 -17 -35 -22 -35 -4 0 -8 -6 -8 -14 0 -21 -26 -67
-34 -59 -4 4 -4 -1 0 -11 5 -12 4 -17 -3 -13 -6 4 -10 -1 -10 -11 0 -35 -3
-43 -15 -36 -8 5 -9 2 -5 -9 3 -9 2 -19 -4 -22 -5 -4 -7 -11 -4 -16 4 -5 1 -9
-5 -9 -6 0 -8 -4 -5 -10 3 -5 0 -10 -7 -10 -11 0 -11 -2 0 -9 11 -6 10 -11 -3
-25 -9 -9 -13 -16 -9 -16 5 0 3 -5 -3 -11 -6 -6 -9 -18 -6 -25 3 -8 1 -14 -4
-14 -5 0 -10 -6 -10 -12 -3 -48 -9 -68 -21 -73 -10 -3 -10 -10 -2 -24 5 -11 6
-22 2 -25 -5 -3 -9 -21 -10 -40 -2 -46 -5 -60 -17 -68 -7 -5 -7 -8 0 -8 6 0 9
-23 7 -55 -3 -36 -8 -53 -14 -48 -7 4 -8 1 -2 -8 13 -21 14 -39 2 -39 -6 0 -5
-6 2 -15 10 -12 10 -15 -1 -15 -9 0 -10 -3 -4 -8 6 -4 10 -49 10 -99 0 -51 2
-93 5 -93 5 0 8 -23 13 -92 1 -16 4 -28 7 -28 3 0 6 -8 6 -17 2 -31 14 -85 25
-104 5 -11 7 -19 4 -19 -3 0 1 -13 10 -30 9 -16 13 -30 9 -30 -4 0 -1 -7 6
-15 7 -9 10 -18 7 -21 -3 -4 1 -13 9 -21 8 -8 12 -18 9 -23 -3 -4 2 -13 10
-20 8 -7 15 -20 15 -29 0 -9 5 -22 12 -29 7 -7 8 -12 3 -12 -5 0 0 -7 11 -16
10 -8 12 -13 4 -9 -11 5 -10 2 2 -7 9 -8 18 -21 20 -29 2 -7 10 -20 18 -27 8
-8 9 -11 3 -7 -8 4 -11 1 -7 -9 3 -9 11 -14 17 -13 7 1 11 -4 9 -10 -1 -7 3
-13 10 -13 6 0 9 -3 5 -6 -3 -3 4 -17 16 -30 12 -13 36 -38 52 -56 17 -17 29
-34 28 -38 0 -3 5 -11 13 -18 8 -7 14 -10 14 -7 0 3 15 -9 33 -27 45 -44 85
-78 95 -79 4 -1 6 -6 4 -12 -2 -7 0 -9 4 -5 6 7 61 -18 74 -33 5 -5 36 -20 53
-24 4 -2 10 -4 15 -5 4 -1 10 -2 15 -1 4 0 7 -3 7 -8 0 -5 15 -12 33 -16 17
-4 39 -9 47 -12 8 -2 25 -4 37 -5 13 0 21 -4 18 -7 -2 -4 13 -7 33 -6 20 0 43
-4 50 -9 6 -5 12 -5 12 0 0 5 44 9 98 8 53 0 104 3 113 7 8 4 35 10 60 13 l44
5 -24 -20 c-13 -10 -29 -19 -36 -19 -7 0 -18 -7 -25 -15 -7 -8 -16 -13 -20
-10 -5 3 -11 1 -15 -5 -4 -6 -11 -8 -16 -5 -5 4 -9 2 -9 -2 0 -8 -15 -12 -57
-15 -7 -1 -13 -5 -13 -9 0 -4 -11 -6 -25 -4 -14 1 -28 -2 -31 -6 -3 -5 -10 -9
-15 -9 -6 0 -7 6 -3 13 5 7 0 6 -11 -3 -16 -14 -52 -18 -155 -21 -32 0 -82
-18 -53 -19 6 0 15 -9 18 -21 4 -11 9 -18 12 -15 3 2 20 -11 39 -30 19 -19 39
-34 44 -34 6 0 10 -4 10 -10 0 -5 7 -10 15 -10 8 0 15 -5 15 -10 0 -6 12 -15
26 -20 15 -6 22 -14 18 -22 -5 -8 -2 -9 10 -5 10 4 24 -1 35 -12 11 -11 22
-17 25 -14 3 4 6 0 6 -7 0 -7 3 -10 7 -7 3 4 13 1 22 -6 9 -7 35 -19 58 -27
23 -7 40 -16 38 -20 -2 -4 1 -7 8 -8 7 0 19 -3 27 -5 8 -3 30 -8 48 -12 17 -4
32 -10 32 -14 0 -6 20 -10 60 -13 8 -1 21 -7 28 -15 10 -9 18 -11 26 -4 9 7
16 7 24 -1 7 -7 12 -8 12 -4 0 5 7 3 15 -4 8 -7 15 -9 15 -5 0 4 8 1 17 -6 14
-12 16 -12 8 0 -6 11 -4 13 11 6 10 -4 29 -7 41 -6 12 0 34 -4 48 -9 19 -7 24
-7 19 1 -4 8 -1 8 12 2 16 -8 269 -11 269 -3 0 1 16 4 35 6 19 2 46 5 60 6 14
2 27 6 30 10 3 4 27 9 52 10 25 2 43 7 40 12 -3 5 5 7 16 4 13 -4 22 -1 22 5
0 6 3 8 6 4 4 -3 19 0 35 9 16 8 29 12 29 9 0 -3 14 2 30 10 17 9 36 13 42 9
7 -4 8 -3 4 4 -5 8 0 12 13 12 11 0 26 7 34 15 8 8 17 11 21 8 3 -4 6 -2 6 4
0 5 6 10 13 10 6 0 31 12 54 26 24 15 47 27 53 27 5 0 10 4 10 9 0 5 13 14 28
20 16 7 49 32 75 56 25 25 51 45 57 45 5 0 10 3 10 8 0 13 57 72 64 65 3 -3 6
-1 6 5 0 11 10 23 109 132 28 30 51 60 51 66 0 7 6 14 14 17 16 6 26 40 17 55
-3 6 -22 13 -41 15 -19 3 -35 6 -35 7 0 2 -36 4 -81 5 -44 1 -86 5 -92 9 -7 4
-12 2 -12 -4 0 -6 -3 -9 -8 -7 -4 3 -48 8 -97 11 -140 10 -187 15 -225 22 -19
4 -44 8 -55 9 -20 2 -88 15 -115 22 -8 3 -23 4 -33 4 -9 0 -15 4 -13 8 3 4 -9
8 -27 9 -17 0 -33 6 -35 11 -2 6 -7 9 -11 6 -5 -2 -23 0 -42 6 -19 5 -41 12
-49 14 -46 11 -130 48 -130 58 0 5 -5 5 -10 2 -6 -4 -25 3 -44 14 -18 11 -36
18 -39 14 -4 -3 -7 -1 -7 5 0 7 -7 12 -15 12 -8 0 -15 5 -15 12 0 6 -3 8 -7 5
-6 -7 -73 30 -85 47 -4 6 -8 7 -8 2 0 -5 -8 -2 -18 7 -10 10 -22 14 -25 10 -4
-3 -7 -1 -7 5 0 7 -6 11 -12 10 -7 -2 -12 2 -11 7 1 6 -8 12 -19 12 -12 1 -24
7 -28 13 -4 7 -11 12 -16 12 -11 1 -57 21 -64 28 -3 3 -14 7 -25 8 -11 2 -22
7 -25 11 -3 4 -26 14 -52 22 -27 7 -48 17 -48 21 0 4 -3 7 -7 6 -15 -3 -93 25
-93 34 0 5 -4 7 -9 4 -5 -3 -22 4 -37 16 -23 18 -26 19 -14 4 14 -18 14 -19
-7 -7 -13 6 -23 16 -23 22 0 6 -3 8 -7 6 -13 -7 -55 12 -49 22 3 5 -2 7 -12 4
-11 -2 -26 3 -36 12 -9 9 -16 13 -16 8 0 -4 -4 -3 -8 2 -4 6 -20 18 -37 27
-16 10 -29 22 -28 27 2 6 -4 8 -11 5 -8 -3 -24 4 -35 15 -12 12 -24 21 -28 21
-5 0 -29 22 -55 48 -26 26 -53 52 -60 58 -7 7 -24 26 -38 44 -14 17 -33 41
-42 52 -10 11 -15 26 -11 32 3 6 3 8 -2 4 -7 -7 -55 52 -55 67 0 4 -7 13 -16
22 -8 9 -13 22 -10 30 3 8 1 11 -4 8 -6 -3 -10 3 -10 14 0 10 -4 21 -10 23 -5
2 -11 12 -13 23 -2 11 -8 30 -15 41 -6 12 -8 24 -5 28 3 3 1 6 -5 6 -7 0 -12
13 -12 28 0 16 -3 32 -7 36 -6 6 -11 25 -16 71 -1 11 -6 25 -10 32 -4 6 -1 14
5 16 10 4 9 6 -1 6 -11 1 -11 4 0 18 12 14 12 16 0 8 -11 -6 -13 -4 -8 8 3 9
1 18 -6 21 -9 3 -8 5 1 5 7 1 10 6 6 13 -9 13 -12 138 -4 133 3 -2 5 9 4 26
-1 16 3 29 9 29 9 0 9 2 0 8 -7 4 -9 13 -4 21 5 7 6 22 3 34 -3 11 -1 18 4 15
5 -3 10 13 12 37 1 23 9 62 17 85 8 23 12 46 9 51 -3 5 0 9 5 9 6 0 10 3 10 8
-1 4 0 9 1 12 1 3 3 14 4 25 2 11 4 25 6 30 5 19 0 55 -7 55 -5 0 -23 -14 -41
-30z"/>
<path d="M7740 6105 c0 -8 7 -34 14 -57 16 -45 35 -126 41 -168 2 -14 6 -32 9
-40 22 -61 28 -321 9 -405 -7 -33 -15 -71 -18 -85 -14 -86 -90 -250 -159 -344
-144 -197 -292 -300 -626 -432 -107 -42 -229 -96 -270 -119 -133 -76 -145 -82
-220 -119 -41 -21 -86 -43 -100 -50 -60 -31 -258 -98 -330 -112 -14 -3 -41 -9
-60 -14 -37 -9 -87 -17 -155 -25 -22 -3 -51 -7 -65 -10 -32 -6 -113 -12 -270
-21 -69 -3 -144 -8 -168 -9 -46 -3 -86 -30 -74 -50 4 -7 23 -31 42 -52 19 -21
62 -70 95 -108 33 -38 82 -89 109 -114 27 -25 56 -53 65 -62 9 -8 32 -26 51
-39 19 -13 37 -27 40 -30 3 -3 37 -24 75 -47 118 -71 288 -143 365 -157 14 -2
45 -10 70 -17 49 -13 420 -19 500 -7 197 29 443 128 586 236 77 58 150 129
141 138 -2 2 -53 6 -113 8 -101 4 -134 9 -174 23 -8 3 -22 7 -30 9 -9 2 -38
13 -65 26 -28 12 -54 21 -58 20 -4 -1 -10 5 -13 13 -3 8 -10 13 -14 10 -4 -3
-11 2 -14 10 -5 13 2 14 42 9 26 -3 56 -8 67 -11 87 -21 290 3 408 47 83 31
227 132 303 211 101 105 104 109 104 115 0 3 18 32 41 66 60 87 155 299 164
363 2 11 4 20 5 20 3 0 11 37 25 113 17 89 24 363 12 452 -21 152 -64 345 -87
389 -19 37 -50 112 -50 121 0 5 -5 10 -12 10 -6 0 -8 3 -5 6 3 4 -3 18 -13 32
-11 13 -20 29 -20 34 0 14 -87 141 -131 191 -41 47 -69 60 -69 32z"/>
<path d="M4373 5810 c-29 -10 -73 -33 -97 -50 -44 -29 -116 -109 -106 -115 3
-2 -2 -11 -11 -21 -34 -40 -53 -116 -53 -209 0 -81 3 -96 32 -155 53 -107 131
-179 233 -216 120 -43 252 -31 355 32 41 25 114 91 114 104 0 5 3 10 8 10 9 0
47 74 63 124 16 52 21 187 7 203 -6 7 -8 13 -4 13 13 0 -45 113 -80 156 -79
96 -189 144 -326 143 -54 0 -101 -7 -135 -19z"/>
<path d="M680 5090 c0 -6 -5 -8 -10 -5 -6 4 -9 3 -8 -2 1 -4 -9 -28 -22 -53
-28 -53 -58 -133 -66 -175 -3 -16 -10 -37 -14 -45 -4 -8 -8 -60 -9 -115 -2
-97 4 -134 43 -260 8 -27 16 -54 18 -60 1 -5 6 -14 10 -20 19 -23 157 -235
153 -235 -2 0 7 -12 20 -26 14 -15 31 -39 38 -53 7 -14 37 -71 67 -126 29 -55
58 -109 64 -120 6 -11 21 -34 34 -52 12 -17 22 -36 22 -42 0 -6 3 -11 8 -11 4
0 21 -23 37 -50 17 -27 34 -50 38 -50 5 0 5 -5 1 -12 -4 -7 -3 -8 4 -4 6 4 16
-4 23 -16 7 -13 25 -34 40 -47 16 -13 26 -27 23 -32 -3 -5 0 -9 6 -9 20 0 79
-62 109 -114 55 -95 284 -311 446 -420 157 -106 454 -219 635 -242 19 -2 46
-7 60 -10 14 -3 102 -7 195 -9 209 -5 290 5 469 55 187 53 372 146 497 250 52
43 163 157 168 173 2 6 12 19 21 29 9 10 23 31 31 46 8 15 16 29 19 32 11 9
61 133 56 137 -2 3 2 22 9 44 14 40 14 188 0 259 -19 94 -108 282 -136 288
-11 2 -27 -16 -49 -54 -35 -63 -39 -68 -92 -126 -21 -22 -38 -42 -38 -44 0 -6
-153 -155 -193 -187 -22 -18 -53 -44 -70 -59 -18 -15 -40 -30 -49 -34 -10 -3
-18 -10 -18 -15 0 -5 -6 -9 -14 -9 -8 0 -22 -8 -32 -17 -10 -10 -19 -17 -21
-16 -1 1 -35 -13 -75 -31 -58 -26 -157 -64 -188 -71 -34 -9 -67 -19 -75 -23
-5 -4 -18 -7 -27 -9 -40 -7 -63 -11 -63 -13 0 -1 -11 -3 -25 -6 -14 -2 -38 -7
-55 -10 -74 -13 -326 -20 -410 -10 -27 3 -70 8 -95 10 -62 7 -250 74 -340 121
-77 41 -96 52 -114 68 -11 9 -26 17 -33 17 -7 0 -13 4 -13 9 0 5 -20 22 -44
37 -25 16 -42 32 -40 36 3 4 -2 8 -11 8 -9 0 -33 17 -52 38 -20 20 -33 30 -28
22 4 -8 -1 -6 -12 5 -11 11 -18 24 -15 29 3 5 0 6 -7 2 -6 -4 -14 0 -17 8 -3
9 -10 16 -14 16 -5 0 -28 19 -53 43 -52 50 -92 84 -129 113 -15 11 -25 24 -21
27 3 4 1 7 -5 7 -14 0 -165 154 -170 173 -1 4 -12 18 -24 31 -40 40 -78 86
-73 86 5 0 -4 13 -32 45 -7 7 -13 18 -13 24 0 6 -4 11 -10 11 -5 0 -10 6 -10
14 0 8 -6 21 -14 28 -17 18 -61 100 -58 111 1 4 -2 7 -8 7 -5 0 -7 7 -4 15 4
8 2 15 -4 15 -8 0 -35 51 -33 64 0 3 -6 21 -14 40 -8 18 -11 36 -8 40 4 3 0 6
-7 6 -7 0 -10 3 -7 7 4 3 2 12 -4 20 -6 7 -8 13 -5 13 4 0 1 10 -5 23 -7 12
-14 36 -15 52 -1 17 -3 30 -4 30 -6 0 -12 51 -15 117 -2 43 -5 81 -8 85 -2 5
-3 43 -2 86 1 43 -2 80 -7 83 -4 3 -8 0 -8 -6z"/>
<path d="M8319 5094 c0 -5 -2 -79 -4 -164 -4 -171 -9 -219 -25 -249 -5 -11 -9
-24 -8 -28 4 -16 -14 -73 -23 -73 -6 0 -7 -5 -3 -11 3 -6 2 -14 -4 -18 -7 -4
-13 -16 -15 -28 -1 -12 -8 -28 -15 -35 -6 -8 -9 -18 -5 -21 3 -4 1 -7 -5 -7
-6 0 -9 -6 -6 -13 3 -8 -1 -19 -9 -25 -8 -7 -22 -32 -33 -57 -10 -25 -22 -45
-27 -45 -4 0 -5 -4 -2 -10 3 -5 1 -10 -4 -10 -6 0 -11 -7 -11 -15 0 -8 -4 -15
-10 -15 -5 0 -10 -7 -10 -15 0 -8 -5 -15 -12 -15 -6 0 -9 -3 -5 -6 3 -4 1 -12
-6 -19 -7 -6 -23 -27 -37 -45 -42 -56 -74 -94 -94 -112 -10 -10 -16 -18 -11
-18 4 0 -14 -20 -41 -45 -26 -25 -44 -45 -40 -45 4 0 1 -7 -8 -15 -8 -8 -17
-15 -20 -15 -3 0 -28 -22 -56 -50 -28 -27 -55 -50 -60 -50 -6 0 -9 -3 -7 -8 3
-10 -40 -52 -47 -45 -3 3 -8 -2 -12 -11 -3 -9 -13 -16 -21 -16 -8 0 -12 -4 -9
-8 3 -5 -7 -17 -21 -28 -14 -10 -48 -39 -74 -64 -87 -82 -128 -117 -133 -113
-2 3 -9 -5 -16 -16 -6 -12 -17 -21 -26 -21 -8 0 -17 -7 -20 -15 -4 -8 -9 -13
-14 -10 -4 2 -16 -4 -26 -13 -50 -46 -337 -169 -434 -186 -104 -18 -214 -26
-285 -20 -44 3 -102 7 -130 9 -27 2 -66 6 -85 10 -63 10 -145 27 -160 33 -8 3
-24 7 -35 9 -69 12 -314 109 -335 132 -3 3 -18 13 -35 21 -16 8 -32 17 -35 20
-3 3 -21 17 -40 30 -19 13 -38 29 -42 35 -5 6 -8 6 -8 0 0 -6 -3 -5 -8 1 -4 6
-34 34 -67 61 -116 97 -207 195 -278 302 -57 86 -56 85 -77 59 -25 -32 -64
-108 -67 -132 -2 -11 -11 -28 -20 -38 -9 -10 -13 -21 -10 -24 3 -4 2 -14 -2
-23 -12 -21 -22 -74 -26 -141 -2 -30 -5 -57 -6 -60 -2 -6 -2 -4 6 -61 3 -24 7
-51 9 -59 2 -8 7 -30 11 -48 4 -18 12 -35 16 -38 5 -3 9 -16 9 -30 0 -13 5
-24 10 -24 6 0 10 -4 10 -10 0 -9 48 -92 75 -129 39 -55 188 -189 270 -242 53
-35 98 -62 100 -59 2 3 11 -2 21 -11 44 -38 296 -128 407 -145 102 -16 158
-19 302 -19 145 0 235 6 305 20 14 3 39 8 55 11 176 31 483 167 635 282 41 31
110 91 153 132 42 42 79 74 82 72 3 -3 5 -1 5 4 0 5 25 36 56 69 61 66 114
138 114 154 0 6 4 11 8 11 5 0 21 13 36 29 15 16 42 45 59 63 44 47 147 184
147 197 0 5 8 15 18 20 9 6 13 11 8 11 -5 0 -4 6 2 13 19 24 112 196 112 208
0 17 82 147 114 182 19 21 35 41 35 45 1 4 9 16 18 27 10 11 18 22 18 25 1 6
40 70 52 85 4 6 9 16 11 23 1 7 11 32 21 55 34 75 36 86 51 201 10 79 -2 203
-26 276 -32 96 -112 237 -115 204z"/>
<path d="M564 4038 c-27 -44 18 -544 71 -798 3 -14 8 -36 10 -50 2 -14 9 -45
16 -70 6 -25 12 -52 14 -61 2 -8 10 -39 19 -68 9 -30 13 -57 10 -62 -3 -5 -1
-9 3 -9 5 0 9 -8 10 -17 1 -16 25 -95 40 -133 3 -8 7 -20 8 -26 5 -23 57 -170
72 -203 8 -18 16 -39 17 -45 1 -6 9 -27 18 -46 8 -19 28 -64 43 -100 37 -90
152 -325 188 -385 54 -90 206 -326 217 -335 3 -3 21 -25 40 -50 47 -60 63 -80
78 -95 6 -8 12 -16 12 -20 0 -4 6 -12 13 -19 6 -7 32 -37 57 -67 120 -147 437
-444 605 -569 33 -25 62 -47 65 -50 7 -7 238 -162 260 -174 11 -6 57 -34 102
-61 185 -113 568 -281 803 -354 55 -17 105 -32 110 -32 6 -1 21 -5 34 -10 25
-10 169 -43 231 -54 19 -3 51 -10 70 -15 19 -4 53 -11 75 -14 22 -3 72 -10
110 -15 122 -19 147 -21 287 -28 83 -3 138 -2 138 3 0 5 -15 23 -33 40 -62 59
-167 234 -167 279 0 9 -5 26 -11 37 -6 11 -13 35 -16 52 -3 17 -9 38 -14 47
-4 9 -6 19 -3 22 3 3 1 22 -6 41 -9 29 -17 36 -38 37 -15 0 -36 2 -47 4 -11 2
-51 6 -90 9 -81 6 -285 41 -350 60 -5 2 -23 6 -40 10 -16 4 -37 10 -45 13 -8
3 -22 7 -30 9 -8 2 -62 17 -120 35 -58 17 -109 32 -115 34 -11 2 -14 3 -90 31
-27 10 -52 19 -55 20 -3 0 -16 5 -30 11 -130 55 -163 69 -220 95 -135 62 -228
111 -340 179 -147 89 -150 92 -169 106 -9 7 -54 39 -101 72 -47 33 -89 64 -95
68 -5 4 -41 33 -80 63 -106 83 -118 93 -295 271 -91 91 -192 201 -225 244 -33
43 -65 83 -70 89 -14 15 -170 250 -170 256 -1 9 -39 65 -50 72 -5 4 -7 8 -3 8
4 0 -7 26 -25 58 -38 68 -134 265 -142 292 -1 3 -7 19 -14 35 -7 17 -14 35
-15 40 -2 6 -8 23 -15 39 -29 70 -91 268 -108 341 -8 37 -11 50 -13 50 -1 0
-4 11 -7 25 -7 38 -11 55 -13 55 -1 0 -3 14 -5 30 -2 17 -7 45 -10 64 -4 18
-8 65 -11 103 -7 118 -12 139 -41 177 -15 20 -32 39 -37 43 -7 5 -7 8 -1 8 7
0 7 3 0 8 -14 10 -65 90 -65 102 0 5 -4 10 -9 10 -5 0 -27 37 -49 83 -37 76
-46 96 -52 122 -7 32 -23 45 -55 45 -18 0 -37 -5 -41 -12z"/>
<path d="M8400 4040 c-18 -4 -33 -22 -52 -60 -15 -30 -27 -61 -27 -67 -1 -7
-6 -13 -12 -13 -5 0 -8 -4 -4 -9 3 -5 -1 -15 -8 -23 -12 -12 -18 -24 -28 -53
-1 -5 -7 -14 -11 -20 -15 -18 -58 -86 -58 -91 0 -3 -11 -17 -24 -31 -14 -15
-23 -30 -20 -35 3 -4 1 -8 -4 -8 -17 0 -46 -54 -49 -90 -1 -19 -5 -53 -7 -75
-3 -22 -8 -65 -11 -95 -5 -53 -10 -86 -19 -133 -2 -12 -7 -40 -11 -62 -4 -22
-9 -43 -12 -48 -2 -4 -7 -20 -9 -35 -3 -15 -12 -46 -20 -70 -8 -24 -12 -47 -9
-52 3 -5 1 -11 -3 -14 -5 -3 -15 -27 -22 -53 -7 -27 -16 -52 -20 -58 -3 -5
-13 -30 -20 -55 -8 -25 -14 -47 -15 -50 -3 -8 -35 -81 -60 -135 -12 -27 -26
-60 -29 -72 -4 -13 -12 -23 -17 -23 -5 0 -9 -7 -9 -16 0 -8 -14 -40 -30 -70
-17 -30 -28 -60 -24 -67 4 -6 4 -9 -1 -5 -4 4 -13 -2 -20 -15 -11 -20 -24 -43
-67 -118 -7 -13 -19 -29 -25 -37 -7 -7 -13 -20 -13 -28 0 -8 -4 -14 -8 -14 -4
0 -16 -15 -27 -32 -10 -18 -22 -37 -27 -43 -4 -5 -58 -75 -119 -155 -73 -95
-166 -199 -269 -300 -157 -155 -250 -242 -250 -234 0 4 -33 -22 -59 -47 -26
-25 -200 -151 -281 -205 -41 -27 -76 -52 -78 -56 -2 -5 -9 -8 -17 -8 -7 0 -18
-7 -25 -15 -7 -8 -16 -12 -21 -9 -5 3 -9 0 -9 -7 0 -7 -3 -9 -6 -6 -4 4 -19
-2 -33 -12 -14 -10 -55 -34 -91 -53 -36 -19 -76 -41 -90 -49 -14 -7 -27 -14
-30 -14 -3 -1 -27 -11 -55 -24 -27 -13 -59 -27 -70 -32 -112 -48 -135 -57
-135 -52 0 3 -6 1 -12 -5 -13 -11 -176 -70 -215 -78 -12 -2 -35 -9 -50 -15
-16 -6 -29 -10 -30 -10 -2 1 -4 1 -5 0 -7 -2 -35 -9 -53 -13 -11 -2 -20 -5
-20 -6 0 -1 -7 -3 -15 -5 -8 -1 -42 -10 -76 -19 -33 -8 -71 -18 -85 -20 -13
-2 -24 -5 -24 -6 0 -1 -11 -3 -25 -6 -38 -6 -153 -26 -175 -31 -11 -2 -74 -6
-140 -10 -66 -3 -125 -9 -131 -14 -13 -10 -54 -89 -57 -110 -2 -8 -5 -18 -9
-24 -16 -27 -50 -169 -52 -218 0 -15 -5 -27 -9 -27 -5 0 -7 -8 -6 -17 1 -10 0
-21 -1 -25 -5 -20 -2 -75 4 -96 7 -22 10 -23 99 -17 51 3 106 7 122 9 28 4
137 19 160 22 6 0 28 4 50 9 65 13 78 15 115 21 19 3 38 8 41 10 3 2 21 6 40
9 19 3 52 11 74 18 22 6 45 12 50 12 6 1 26 6 45 12 94 29 156 47 162 48 3 0
10 3 14 7 4 5 17 8 29 8 12 0 25 3 29 7 3 4 12 8 19 9 25 5 172 59 177 65 3 4
24 12 48 19 23 7 42 18 42 23 0 6 3 8 6 4 3 -3 38 11 78 31 39 20 73 37 76 37
26 4 311 162 322 179 4 6 8 8 8 3 0 -6 254 161 292 192 7 6 33 26 58 45 59 46
114 90 195 159 93 79 358 351 435 447 19 24 43 51 53 62 9 10 17 21 17 24 0 3
6 12 13 19 6 8 20 25 29 37 9 13 29 38 43 56 15 17 24 32 20 32 -3 0 0 6 7 14
25 26 43 51 78 106 19 30 38 57 42 58 5 2 8 8 8 12 0 5 13 28 29 52 34 52 68
111 112 198 19 36 38 68 44 72 5 4 6 8 1 8 -5 0 -1 9 10 21 10 12 18 23 17 25
-4 10 10 44 19 44 5 0 6 5 3 10 -3 6 -1 10 6 10 7 0 9 3 6 6 -4 4 0 19 7 33
17 34 48 105 48 111 0 3 4 13 9 23 8 14 74 191 83 222 2 6 6 18 9 28 11 27 17
47 15 50 -1 1 4 11 10 23 6 11 14 34 17 50 3 16 7 34 9 39 2 6 6 24 10 40 4
17 14 51 22 76 8 25 16 54 19 65 2 10 13 57 24 104 11 47 22 103 26 125 3 22
10 65 15 95 31 181 37 237 45 435 4 83 8 167 9 187 3 42 -21 59 -64 48z"/>
<path d="M7926 3357 c-16 -23 -29 -43 -28 -44 1 -2 -13 -18 -31 -36 -17 -19
-43 -49 -57 -68 -14 -18 -48 -58 -76 -89 -28 -30 -63 -68 -77 -84 -15 -16 -24
-32 -22 -37 6 -9 -14 -98 -25 -114 -4 -5 -13 -28 -20 -50 -7 -22 -26 -68 -42
-102 -15 -34 -28 -66 -28 -71 0 -6 -6 -17 -12 -24 -13 -13 -34 -51 -66 -113
-35 -67 -208 -308 -276 -384 -17 -19 -60 -65 -96 -103 -36 -39 -68 -77 -72
-86 -4 -10 -7 -14 -7 -9 -1 12 -61 -49 -61 -63 0 -7 -3 -11 -6 -8 -7 8 -44
-28 -44 -44 0 -6 -3 -9 -6 -5 -3 3 -16 -3 -28 -14 -11 -11 -45 -42 -75 -67
-29 -26 -65 -58 -80 -72 -15 -14 -31 -26 -36 -28 -6 -1 -19 -10 -30 -20 -11
-9 -37 -28 -58 -42 -20 -14 -37 -28 -37 -32 0 -5 -4 -8 -9 -8 -11 0 -195 -122
-199 -132 -2 -5 -7 -6 -12 -3 -5 3 -16 -2 -24 -11 -9 -8 -16 -13 -16 -9 0 4
-12 -3 -26 -14 -15 -12 -33 -21 -40 -21 -7 0 -19 -6 -26 -12 -12 -12 -185
-102 -198 -104 -3 0 -22 -8 -44 -17 -21 -9 -40 -17 -42 -17 -1 0 -15 -5 -31
-12 -15 -6 -30 -12 -33 -12 -11 -3 -106 -38 -130 -49 -14 -6 -27 -11 -30 -12
-22 -7 -59 -17 -71 -19 -8 -2 -21 -6 -29 -9 -24 -9 -252 -65 -290 -71 -19 -3
-46 -8 -60 -11 -41 -9 -91 -15 -165 -20 -38 -3 -72 -9 -75 -13 -4 -4 -17 -50
-30 -102 -13 -52 -29 -109 -37 -127 -12 -29 -11 -33 5 -42 9 -5 31 -8 47 -6
17 2 55 6 85 9 30 3 66 8 80 10 139 25 178 32 220 41 14 3 34 7 45 10 42 9
220 57 227 61 4 3 18 7 29 9 27 5 87 24 114 35 36 15 90 35 98 36 4 1 9 3 12
4 3 1 8 3 13 4 4 2 18 7 32 14 14 6 75 32 135 59 61 26 140 63 176 83 90 47
203 112 209 119 8 10 44 31 63 37 9 4 17 11 17 17 0 6 3 7 6 4 4 -4 14 1 23
11 9 9 28 24 42 32 15 8 39 24 54 35 98 73 162 121 171 130 6 5 28 24 50 40
80 63 330 308 409 400 28 33 58 67 68 77 9 10 17 21 16 24 -1 3 8 16 18 28 28
31 185 271 214 326 13 25 26 47 29 50 18 18 160 309 159 325 0 3 7 18 15 33 8
15 29 70 46 122 17 52 34 102 37 110 8 20 12 32 15 50 2 8 7 21 11 28 5 6 6
12 2 12 -3 0 1 15 9 34 8 19 12 36 10 39 -3 2 0 16 5 30 15 39 41 217 32 217
-3 -1 -19 -20 -35 -43z"/>
<path d="M1065 3320 c11 -101 12 -106 25 -130 6 -12 9 -24 6 -27 -3 -3 -1 -13
4 -23 5 -9 11 -28 14 -41 11 -54 15 -69 31 -115 9 -27 18 -53 19 -59 4 -14 24
-66 36 -90 18 -38 54 -140 52 -147 -1 -5 2 -8 8 -8 5 0 10 -6 10 -14 0 -8 23
-59 51 -113 29 -54 59 -113 68 -130 8 -18 19 -33 23 -33 4 0 8 -9 8 -20 0 -11
3 -20 8 -20 4 0 16 -17 27 -37 11 -21 25 -42 32 -46 7 -4 13 -13 13 -18 0 -6
25 -46 55 -90 30 -44 55 -81 55 -84 0 -5 25 -37 48 -60 6 -8 12 -17 12 -20 0
-4 11 -19 24 -33 13 -15 59 -67 101 -116 107 -121 276 -287 351 -343 43 -32
72 -55 102 -79 52 -41 203 -144 212 -144 4 0 10 -4 12 -8 5 -12 113 -82 203
-132 44 -24 98 -53 121 -65 22 -13 78 -39 125 -60 46 -20 111 -50 146 -67 34
-16 68 -31 75 -32 7 -1 19 -5 26 -9 6 -5 12 -5 12 0 0 4 4 3 8 -2 5 -8 90 -40
132 -50 3 -1 50 -15 105 -32 55 -17 111 -33 125 -36 14 -2 61 -14 105 -25 44
-12 96 -24 115 -27 19 -3 55 -10 80 -15 70 -15 108 -20 208 -26 l92 -7 2 74
c2 97 4 123 11 143 4 9 3 16 -2 16 -4 0 -6 11 -3 25 2 14 0 25 -4 26 -5 0 -22
2 -39 4 -66 6 -161 16 -185 20 -14 2 -43 7 -65 9 -22 3 -51 8 -65 11 -14 3
-38 8 -55 11 -16 3 -77 16 -135 30 -329 79 -613 197 -969 405 -14 8 -34 22
-45 32 -11 9 -26 17 -33 17 -7 0 -13 4 -13 8 0 5 -12 15 -27 23 -16 8 -30 16
-33 19 -3 3 -45 36 -95 74 -49 38 -95 75 -101 83 -6 7 -14 13 -18 13 -12 0
-70 54 -211 195 -161 160 -265 275 -265 292 0 6 -3 13 -8 15 -4 2 -25 28 -47
58 -22 30 -42 57 -45 60 -3 3 -11 17 -19 33 -8 15 -18 27 -23 27 -4 0 -8 7 -8
15 0 8 -3 15 -7 15 -5 0 -20 21 -34 48 -15 26 -41 74 -60 107 -33 61 -112 216
-114 225 -2 9 -26 85 -32 100 -8 19 -7 17 -17 65 -6 30 -23 54 -70 100 -64 62
-105 110 -159 183 -18 23 -47 60 -65 80 l-34 37 7 -65z"/>
<path d="M7351 2661 c-32 -32 -192 -104 -281 -126 -13 -3 -97 -18 -110 -20
-57 -6 -79 -19 -111 -63 -49 -67 -68 -99 -63 -106 2 -3 1 -4 -2 -1 -8 5 -64
-63 -64 -77 0 -5 -4 -6 -10 -3 -5 3 -10 2 -10 -2 0 -5 -21 -31 -47 -58 -27
-27 -47 -54 -45 -60 2 -5 0 -7 -3 -3 -4 4 -35 -18 -68 -50 -33 -31 -67 -64
-76 -72 -9 -8 -45 -37 -81 -65 -36 -27 -66 -53 -68 -57 -2 -5 -7 -8 -12 -8 -4
0 -48 -30 -97 -66 -94 -70 -282 -186 -323 -199 -14 -4 -27 -11 -30 -14 -9 -12
-209 -87 -285 -106 -16 -5 -34 -9 -40 -11 -5 -2 -20 -5 -33 -8 -13 -3 -31 -7
-40 -10 -9 -3 -34 -7 -56 -11 -21 -3 -41 -7 -45 -9 -11 -7 -184 -19 -286 -20
l-100 -1 1 -30 c1 -17 5 -57 8 -90 4 -33 8 -89 10 -123 3 -67 13 -83 49 -76
11 2 55 8 97 14 42 6 87 13 101 15 13 3 38 8 54 11 17 2 48 10 70 15 22 6 48
13 58 15 10 2 27 6 37 9 10 3 27 8 37 10 10 2 50 13 88 25 39 12 77 23 85 25
26 6 173 62 225 86 28 12 52 23 55 24 3 1 23 10 45 20 22 10 43 17 48 17 4 -1
7 2 7 8 0 6 3 9 8 9 13 -3 72 25 72 34 0 4 4 6 9 2 5 -3 12 -1 15 4 3 5 29 21
58 36 56 29 224 139 246 162 7 7 17 13 21 13 4 0 17 8 29 18 11 10 33 27 47
38 15 10 32 24 39 29 6 6 29 23 51 40 66 49 94 73 207 181 59 56 198 203 198
210 0 2 14 18 30 34 17 17 28 30 26 30 -3 0 5 11 17 24 26 29 36 42 59 77 9
14 23 32 30 40 7 8 22 27 32 44 11 16 23 34 28 40 20 23 76 115 71 115 -3 0 0
8 9 18 16 19 40 72 33 72 -3 0 -14 -9 -24 -19z"/>
<path d="M1660 2640 c6 -11 8 -20 5 -20 -3 0 4 -9 15 -20 11 -11 20 -25 20
-31 0 -7 8 -18 18 -26 10 -9 11 -12 2 -7 -8 4 -5 -3 8 -15 12 -12 22 -25 22
-30 0 -4 9 -17 20 -29 12 -12 18 -22 14 -22 -4 0 3 -9 16 -20 13 -11 20 -20
16 -20 -4 0 -1 -6 6 -14 7 -7 20 -24 28 -36 8 -12 20 -28 25 -34 6 -6 29 -33
51 -61 52 -66 82 -101 122 -142 18 -18 30 -33 27 -33 -4 0 13 -17 37 -37 24
-21 71 -65 104 -98 55 -54 92 -86 172 -150 13 -11 37 -31 52 -45 32 -28 39
-33 135 -95 39 -24 77 -49 85 -55 160 -108 391 -225 595 -302 44 -16 94 -35
110 -41 17 -7 32 -12 35 -13 3 0 12 -3 20 -6 30 -10 86 -27 130 -38 43 -12 56
-15 101 -25 11 -2 28 -6 37 -9 9 -3 34 -8 56 -12 21 -3 48 -8 60 -11 20 -4 30
-6 106 -18 84 -13 109 -16 173 -19 56 -2 70 0 77 14 5 10 7 20 4 22 -3 3 -7
18 -10 33 -3 15 -6 33 -7 39 -1 6 -4 13 -7 16 -3 3 -16 27 -30 54 -28 54 -48
72 -111 103 -65 32 -81 37 -154 47 -16 2 -43 6 -60 9 -16 3 -50 9 -75 12 -69
11 -69 11 -76 17 -3 4 -13 4 -21 1 -8 -3 -24 -1 -36 5 -22 11 -96 27 -109 24
-5 -1 -8 3 -8 9 0 5 -4 8 -9 5 -5 -3 -28 1 -52 10 -24 8 -51 17 -59 19 -8 2
-33 11 -55 20 -81 35 -90 38 -97 37 -5 -1 -8 2 -8 8 0 6 -3 9 -7 8 -9 -3 -176
81 -183 92 -3 4 -14 10 -26 14 -11 3 -29 14 -40 24 -11 9 -27 22 -35 27 -87
57 -137 92 -153 107 -11 10 -26 18 -33 18 -8 0 -11 5 -8 10 3 6 -2 13 -12 17
-10 4 -20 9 -23 12 -3 3 -34 31 -70 60 -84 71 -294 282 -303 305 -4 10 -12 14
-19 10 -7 -4 -10 -4 -6 1 4 4 -13 32 -37 62 -25 30 -53 68 -62 83 -19 34 -32
40 -90 46 -44 4 -131 25 -173 42 -14 5 -29 11 -35 12 -34 9 -79 28 -143 61
-59 31 -70 34 -62 19z"/>
<path d="M4170 1536 c0 -2 8 -10 18 -17 15 -13 16 -12 3 4 -13 16 -21 21 -21
13z"/>
</g>
</svg>
